<mxfile host="app.diagrams.net" modified="2022-02-17T09:54:31.962Z" agent="5.0 (Windows NT 10.0; Win64; x64) AppleWebKit/537.36 (KHTML, like Gecko) Chrome/98.0.4758.102 Safari/537.36" etag="qZtBgwnpziLbrLjOn7Qh" version="16.5.6" type="github">
  <diagram id="fqtC57XP0jYVe-Dkvt3n" name="BuildConfig">
    <mxGraphModel dx="1422" dy="766" grid="1" gridSize="10" guides="1" tooltips="1" connect="1" arrows="1" fold="1" page="1" pageScale="1" pageWidth="827" pageHeight="1169" math="0" shadow="0">
      <root>
        <mxCell id="0" />
        <mxCell id="1" parent="0" />
        <mxCell id="XeXQdiVeyh-9FNKgozW7-1" value="BuildConfig" style="rounded=0;whiteSpace=wrap;html=1;" vertex="1" parent="1">
          <mxGeometry x="340" y="560" width="120" height="60" as="geometry" />
        </mxCell>
        <mxCell id="XeXQdiVeyh-9FNKgozW7-28" value="" style="edgeStyle=orthogonalEdgeStyle;rounded=0;orthogonalLoop=1;jettySize=auto;html=1;exitX=1;exitY=0.5;exitDx=0;exitDy=0;" edge="1" parent="1" source="XeXQdiVeyh-9FNKgozW7-2" target="XeXQdiVeyh-9FNKgozW7-29">
          <mxGeometry relative="1" as="geometry">
            <mxPoint x="580" y="820" as="targetPoint" />
            <Array as="points">
              <mxPoint x="480" y="720" />
              <mxPoint x="480" y="820" />
            </Array>
          </mxGeometry>
        </mxCell>
        <mxCell id="XeXQdiVeyh-9FNKgozW7-32" value="Ref. ConfigMap" style="edgeLabel;html=1;align=center;verticalAlign=middle;resizable=0;points=[];" vertex="1" connectable="0" parent="XeXQdiVeyh-9FNKgozW7-28">
          <mxGeometry x="0.3308" y="1" relative="1" as="geometry">
            <mxPoint as="offset" />
          </mxGeometry>
        </mxCell>
        <mxCell id="XeXQdiVeyh-9FNKgozW7-2" value="Build" style="rounded=0;whiteSpace=wrap;html=1;" vertex="1" parent="1">
          <mxGeometry x="340" y="690" width="120" height="60" as="geometry" />
        </mxCell>
        <mxCell id="XeXQdiVeyh-9FNKgozW7-3" value="owner" style="endArrow=classic;html=1;rounded=0;exitX=0.5;exitY=1;exitDx=0;exitDy=0;entryX=0.5;entryY=0;entryDx=0;entryDy=0;" edge="1" parent="1" source="XeXQdiVeyh-9FNKgozW7-1" target="XeXQdiVeyh-9FNKgozW7-2">
          <mxGeometry width="50" height="50" relative="1" as="geometry">
            <mxPoint x="390" y="720" as="sourcePoint" />
            <mxPoint x="440" y="670" as="targetPoint" />
          </mxGeometry>
        </mxCell>
        <mxCell id="XeXQdiVeyh-9FNKgozW7-4" value="" style="shape=image;verticalLabelPosition=bottom;labelBackgroundColor=default;verticalAlign=top;aspect=fixed;imageAspect=0;image=data:image/png,iVBORw0KGgoAAAANSUhEUgAAAYQAAAFqCAYAAAAa8y0hAAAgAElEQVR4nO29T6j0XH7n9+23vUhmY7enocGYFjf1dExEp7sIjONs1NVQ5OJFVC8YJ6E2cqhe3EVcIM/CFGa0kB2KLBKBmpAbcOGpjZyMMbSUNJPbFLhaqzCzUY8bQfBz50YeMAzptulNkoXffrOQVKVSSecc6UhVqrq/Dzx0v1d1/h/pSOfofPSFX/3VX/0cOV/+dfzJt38J//zPfoB/BgIAoJrwvQdsxksEfcbVJB3dRbR4w3zmIJbN063QZTvUpqFD//ARH4P4/dRrziXqlxg8nxT/4xtf+iX8e7/4i/j3v/zla+WnP3QXUeRCv2YeYgczOuEGig7Xs2HbT/hw7awQxJXIBoSv4U++8x189wHAz4DRf/Rt/PA//dpVM0YQl0OF6dtQwhDhtbNCEFfkEwD4xq+PMf3rH+JbP3jDv/5ZhP/qB3+Gb/3grxpEo8J0fURRhCiK4Ls61NJx/eS4WTouEL8fZeF9mKaLyC/GUY6/kL5qwo8iRLYGQIOd/SZymz0rjEw3jacy/tKTh17Onw43T7fVU4oOt1j+UeMIODDqD4Bq+qflUU34kQ8z/4Oql9r//Leu6yOKfLhm1h6Rm4bP6s+sq98O8i/E3sJsuWsaShAVX/2D/w2/8b2/xG987y/xzT/4FP9AOGzad067a3o+HP4mU/8EUeA4ZfSLX8I3Wkaiux4MbDAfjzGeW9grNtaF3qa7HmxlD2s+xng8xmoHPDa4KuquByOxsvg3wEQ7O27n6Y/np+nHDmbjMcZWCCCENU7zMF42mbjRYDzssKopH58Ay/EY47HV6g5Ud21ojPLLwqw/ALEzg5UY2d90uJ6BxJrBySba9ccpsFul9TqeYw8DXmnAfXueYb4FNOMBm/EYVqhh8pinIVe/vPzzieE4/U3kffkP/hf8Cv4Y/+rT/xD/xz/+J/i7X/lDfO13RPMX4HmbQJsW6lN/gqGE2GVZlq9/gkj5BAD+1b/4C/xPP1Pw/e98C9OvjvEnv/41fEN4GUHHVEuwfQ7Shbg4gLMJoUwes7uU7PjKQZBdQOLAgfj5Vx1/7XHEpfS7gFW+vuGVv+P4a+ovWFpIDA++b0MLLRTH08BZwskbFzGcXQgoo0L4BK8xEL8mQPKGj2d5kKnfS7S/DJ/iH/6jBH/zP38P/w8AvH4Pf/3nP8S/+49+U/gpIX7ZI9GmhydLfaoB4e6wFiVf/wSR8gvp//wEf/SDP8Mf4Wv4k9/+El5/aYzvf/qAf/zHAm8bqSMoSLCrey2Dd7yT+BVoXgSj+PfkrWWCVaQn1FWQrT+h+EXqL8DzdgHPALar0mium/AXBhSFFZ6FRP0K5V+HG9k4PleFsDpd3P8Uv/a9P8SXDv/9Q3z89L/GTwBgNMK/g/8LP32ViD5+wT7xsDBVBM6HdACcF3IvXf8EkfILZ3/52d/hj37wr4Hf/hS/+TXgn/GWEuJXJJhgpAKV7+rxjvMQij/s+XU5pX3+ZZGtP6H4BepPNbE2Emy3Coy1iZfDK686XNtAYs0xy+9SdRfRokkmJOpXKP8BluM+3+36Hv7PT79Xfej1Ff8fvo1/MALQelBIn3qMxSPU1wdoyR7Ph7rqov4JIiVdVP7a1/CfF6eIvvwljH7xZ3j9O5EoAuxCBcZTtpCn6jAXGpL9S3Z+Z8fXJvTsGVbVTZjCawjV8Z8e12AXFhJV3YRbTuDjG5L8wtMYRvniVyTQsDAPhSvl7zyuyjxk8UzP6oVXfllE6i9fN1jCydYTTueoE7zlV/NW+WP1nwxm/Qi0/9X4Hn76LxX8yn+ZLSSPPsVXf+tb+H//5T9Pp5BECXYIFQOeXVE30vUPRv0S74l0DQFfwm9++7fxb77zLUy/+i38m0/HwA//An/0E7FIguUcWyzgRREiz8YksbBy4pPjVjKB7aVvQaynwEuDG7ZgOcdWsdP411NgH54dt/L0s/h35QRiB5sQMLw2bxmF2L5NsS6Ub3YoX4ClFQKGl8a7nuJ1XzfHH2BpJZhkefBPFj7TeBT7/NhJ+b3FWfll4dWf7p6uGwRLC6FmZ2+5pIuekyzf7PLXcV6/xf6TpcqsH277M8nfArOhHd5E627Pyk/+m/8Cf4Pv4Bvf+0v8xn/3h/jS3/wT/NU/bfo4FGAXAkCIzUnddFH/aTx19Uu8H75Q3qn8w09/Cf+DyNrBNXmPO3XvFdohK4xq+vAeNg3fkCMIcT7h/2QA6CZc/TAhUD2lQBB3jY4nQ0G4o8GA6I/TReWf/At864+vlBMWwQt27hqRnb5GkYRVUwoEcZ/obgRbS/v9jMYDokdOp4wIgiCId0vHU0YqdF0dyIagKgaYvyr1RfvIzsqnmkelgfBC6Zl644ZpVL+c/qGaR4VIL/UzwP5JvCu6HRDURyyGbIscev5kqShf7MxSpcF8i+RqGbsROP1DfzKg7OdpffbxQsO1+6eq04D0zul2QKjSO5dFaBm621wwJ82966fvvXx9w6w/FSMFSOq2VHehV++o/VTTb3Fukf6buMRbRvEL9olSEmnpSHUsbbq+ClWluxiCqOb8bSS16mQ5+SPpv4mUdEDg6nN5emKW3jnGyz45lY3pU2g42hr5+mIdbuTCNH340Rrr9RpeIR1VP+YtivzCK6oi+UvTr9V353PQxTR8F2dJ5Gm0nFu+bb02v/7Y/YenL2fXP7/9ATDbj1V/uXrdg6EAWr4BLK//TvTqEv3zLKoptGSL5/zcUk2svVKcqgnfezr9W6/6b+JW+AQQ0efy9MRsvXP8skeiPBweRdWRcmJrFNMXa5g8bLAazzCbzTCeP2fhdTzZCvZWprUer7CbPpZOKnb+ePpuQMNimpV/PIeVaLCfupzuum29tkj9scrHb39W/Yu0P6/9WPUXw5ml4bYJEObp5GsInejVZftnTrpHJ9wU1jfiF+yTUyWF+jiBUjj/+tZ/E7fDJ4CYPldK/3zSKVU8ToqPtKL64gT7w28AxMW5XAWTkZ49BccIlk6DeVievrucdozgrH6Aw0ndarHxlvXaYvXH1aMz259X/7z2F2m/oSJSv/lPn2Cg8HQAIH9CP35PgTa4EfWkG9O4+lxZ/XPaKb2pDnwcYaKE2BweaWX11QGW8xHc9QJrw4aCBOF2haXoxjUhvXTf+usb1mvL1p9Q+7PqR6T9r1i/sgi3T/50sDy7IYmdDcJoAVMN4HxIp5TmNB4QFfyCmD5XXv8cvybAZAT9wwOU4kc6utBXxw6WMwdAOp/s2U/QHcH4OtVLq1ARt4jmhvXaQuEZ5bt2+w8d0fbJvqJmVRY6wC60sXhU8fqgIdk/k/aFqCR7y4inzxXQExd+W6l3DnYIlQkWZ2El9cVq+lvxx/9y/nj6blF0uJF3stgtzi3otbOF57MFTZH64+nRL9n+PFoq0rl69br646Uv1j/1qYZk+1w7CAa7EMrkCVMtwf6FhgOimk/E9LkiemKAp3fehQoU5bxDSumLYwfPyPIWRfAWwHZed3dYnT+evluMj3hLEiQni3Wi3IheWwGgnL+CxK8/dv+5XPvzYNUfPx9cvXpN/fHS59avamKhlbXY5ah3CBUNWrLH+XjQr/6buB34LiPSExMHWswrUf8p0M+8oO5GWLzNCzcRBNGO809oEkQtdMGRo4f6y58OltQ2hDw0IBDELRM7mI2vnQniXiD9NUEQBAEA+KROPldNR3reweqVSR9NEMT7pZnc7tp63r4hfTRBEO+YZmsIQ5yv1N1MLHYkCS2slkHzJbwhlo8gCOJC9K+/vggFqVitHI8gCIJgcTYgpHPmDfTAQnpoEb2ynD76SKbbfvhwmr+TpIamjyYIgrg+JwOCavpYTxJY4yWCk/kWnl6ZrReW1Ss3QtXxOFGQvH3k//bAdfXRBEEQQ+AwIDw8+fCMBJtZmx2lLL2wqF5ZRh9d+DBJa/VEW2T10QRBEMMgGxAUaEpSIz8Tgac37ls/fLqGsIFd+sBPj1ykfARBEP1zsJ1uV0vMrBCaLbonQZD4lWOBLNLFt5KzJxRtehk5V6PyEQRBDJfTReVgCStUYKxZC7tNL34N9Mqt9dFFVOgjBci/uTAYfTRBEMSwOXvLKFXtGjWvbbbTA4vplWX00YU1hMjDYrKHtXIOvv3B6KMJgiAGDLmMCIIgCAB3szGNIAiCkIUGBIIgCAIADQgEQRBExjAHBNJHEwRBXJxhDggEQRDExeluQNDdlmK4O0mfIAjixqEnBIIgCAJA4ROarusjiny4pplprN2CwkKF7h4/Jem7+nF+X81+b2s42SBWdAmpOsyT8OX1AY4+mhW+k/SzPHSi3yYIgrhNDk8Ib88zzLeAZjxgMx7DCjVMHjNfqevBxibVO5c/QBM7mI3HGFshTiRzy+N+Y/1xCuxWxw/YwDiRz/H00czwHaRPEARBFOR2rzEQvyZHB9CBkt4ZMZxNCGXyKHwnHThLOIcPLMRwGuqx2eFl0z/8SkK/TRAEcfvwv6msjqBAgeZFMIp/T97EU9FN+AsDilIRPtNH71hXYVZ42fQJgiAIACIDQvyKBCE24zYfzgEAHa5tILHmmOV36bqLaFGMf5IaRisHBU542fRPUKEipicEgiDeJQJvGQXYhRrswkKyqptwzdIc/Mc3xncBErzll9kzPbSIPpoVXjb9nK702wRBELeJ0GunwXIOC4tU7xxFWE+B3UvpeSF2sAkBwyu/5RPgeZtgkmmjq/TTbH00P7xs+iky+m2CIIjbh/TXBEEQBADamEYQBEFk0IBAEARBAKABgSAIgsigAaERKnRdJbUFQRB3CQ0ITVAfsbCf8OHa+SAIguiB+xkQZPXXIuFjB7PWG/QIgiCGzf0MCARBEIQU3QwIXD21C113M612hMh3oauCx9MfleLvUL8tEj5XY2da8POnCF7+2OVTi8ciH65etUpBem6CIPqlkwGBr5fWsJjusMqOW4kG+0n8uO56MHL99tzqVr8tEP5gQh1bqNrjzMwft3w6nmwFeytLd7zCbvpI+gyCIC5OJwMCXy+dYF/QZweNjlfrsbvTb8sikj9e+RVMRjpUNTu+dCrWKUjPTRBEv/BtpyJw9dLp9xbqYRwX0WNL508Cofyxyh9gOR/BXS+wNmwoSBBuV1g6dNknCOKydPCEkOmlN/NsyiOffumI+JVhMb2H/AGIHSxnM8zGY8ytBJrxVDNlRHsgCILoj47eMhLRS7elWo+d7F9Op05k9dfM8EXKvxHMXx1qqhLnX+hJz00QRL90MCCI6qUlUljOsc31256NSWJhVZ5SkdVf14Y/LevSSjDJfuNnC8dC+asjdvCMKdbZW0beAtjOq/Y6kJ6bIIh+If01QRAEAYA2phEEQRAZNCAQBEEQAGhAIAiCIDJoQOCRqyfEfszWY6smXD/XV/ShoOhBz92o/NzIzvKnmkflh7CcUHeHqfDgti/p02+NVv3zhqEBoUs4emz9yYCyz/ZD9LHjeOh67or8xc4srY/5FsnVMtYN3PYdevsQZ9xT/xShm53KRErsYDauO6hipABJ3ZZm3UVkA5aMXpuZvjiq6cN72JR8Th3QUf6GCad9gTsvP3EP0BMCUULHk6Eg3NFuB4J4bwxkQODro03zqIg+OZ6F1/vWTzP13Cw9tgrTjxBFHgwF0OzSHLOQfpuHhJ77LKoptGSL59J4MKqr/6o1hrM5fl7+BMrnH9vHHDUNX+4f5fl9GX05p32Fyp/HkZXPbLBGIqKP5+rffbiun/Z9M+uPkQuzUMba86tcxlZrO+z4VdM/jTfL8yF/MuUTur7I5f+WGMSAIKKPNh4yfXTFcd31YOfhx/Me9NM8fTdLjx3DmaXhtgkQ5unkc8xC+m0esnruHBXmQkO4Kc9/s+tfNn88dNeGllhZ/jfApJkaRXc92Moe1jyt29UOeNRPj7fXl3PaV6D8uuvBkCgfVx/P1dMDb88zzLeAZjxgMx7DCjVMHtVj/THPLzl48cfODFZiZH/T4XoGEmuGXAYgWz7Z/t13/VySAQwIYvro+uOl8Ih70E/zwg+ZBvpw/QkGzp8O2PXfN9X5bxx+5SA3oMeBAycoHZfSl8sgWz5+/kT09K8xEL8mQPKGj6z8VZ5fQHs9u1j8wdJCYnjwfRtaaKF4vyRXvvR4+/4tWj+3wfUXlWX10eoIChRoXgTjJIiofltEP83Tdw8YYX14/nSwrDihr1h+ofzrcCMbx/vq8Lg4zwsvrS+XpAu9Oy9/Mvp3ofNLAuH4AzxvF/AMYLsq3bFI6+0l2rfv+rkw1x8Q4lckmKQG0dpGUeqPx69IEGIj+XbOcuYASNcTPPsJuiMR35AQql+kTwdKCKuy0Iz67xuh/AdYjmtaixdetH76ovf0M/27Nccsv4vWXUSLJvkTPb9UqIibFUM0ftXE2kiw3Sow1iZeDk8ikuUDINW/u7j+DIgBTBmJ6KNZxwPsQg12YSFH1VOltBDC+mlRWn4bgavfzhZWuQtW7fTc+lRDsn2u6dSM8PErEmhY5HOmXP15TRmzeKZnzVadf3Gy8GvzsNCq6iaO3UNSX94YsfY5R7T9q5DR04ueX2317CLx5+sGSzjZesLpGoGsfl+g/Zn9U+L6MzAGMCCI6KNDbN8yRXTF8WA5h5WHjyKsp8DuRXC8FtZPC5WkUo8tmg+uflsBoLBesWmp51ZNLLQQm1pl93n9zw6/DbC0QsDwBPTnrPpJ41Hs82PBco6tYmf5XwAN9erBcg4rmcD2jv2j2D2k9OXNclLfPnn51tP68nHbvzpNWT292PnVXs/Oi193T9cNgqWFULORniJd6PfZ15csVWb/bH39GRjD11+rJnzv4W4eyeToZ15BdyMs3uaFizxxVXQX0eIN87MF2mvNa90xdH05YRBPCIQoPVwMuE8HRO/oZmHvi8qYsqI2Ivrl+ovKxHUhncL1CV6wc9eI7PQ1mSTsa8qKINgMf8qIIAiCuAg0ZcSD9Nekv2bRaf0QxHWhAaFLSH/N5s711zePqtP3Gt45NCB0SexgVvu2QqZHrtsSqbvyH+Bgpi+OavoN5XqCdJQ/oikqTN8/kbmdt64O17NhV95QiIQn7gEaEIgSpL++LipU9dJ36SpM34YShq3kg8T9MJABgfTXpL/mlK+t/prX/rz8C+mhGfWTJsLRI+twIxem6cOP1liv1xU7fmX00gLsLcyWuz5iJm6IQQwIpL8m/TULWf01v/34yOiTxfTIGiYPG6zGM8xmM4zndRqRPojhOPRESAxiQCD9db+8d/01IN9+MvpkUT1yMY8A4gp1QuuXEWI4s+z7Aa3WcWTDE7fC9Temkf66X96F/ppH3/mX7Z8EMQyuPyCQ/rpf3oX++tr03D8PtNBLE0QDBjBlRPprAKS/ltZft9RDN85/FT32zwNt9dIEIc4ABgTSX+f5IP21pP66pR5aPP91sOqnKz1ye700n/wtMBva4U03GnjeI8N3GZGetgDpr9kMel6JIAbP9dcQiAb0qL9e3sOF9B7KQBDXgwaE9w7prwmCyBj+lBFBEARxEQaxqDxoSH9N+uuhpU8caNV/LsmNnT80IHQJ6a/ZkP6a6JiL9p9r68EvcP7QGkKXMOfjM/113ZZb3UVkA5bkBrsu1gNU04f3sGnoUxKA1iuImyXVg2sIYQVVu/kvwAXOH3pCIEqQ/pogTnk/evCBDAikvyb9Nad8kvprXv9h10+P+m0g3d18kr5Zql+efpun187K0Hrtih2/avqn8WZ5PuRPpnxC7SeXfyEk9eC3cv4MYkAg/TXpr1l0ob/m9R9W/fSt39Yfp8BulfW/OfYw4JVuCFj6bTG9dnt48cfODFZiZH/T4XoGEiuzo3ZQPtn+J18/snrw2zl/BjAgkP66X0h/3aj/CB5vmj6r/wTOEk6QD8ExnLP+xdJvi+q12+qzxeIPlhYSw4Pv29BCC8X7Gbnypcfb9z/R+umT2zl/rr+oTPrrfiH9Nfj9hxG/UPo63MjG8b4rLL0cwKk/3YS/MKAoxSwL6rH71msLxx/gebuAZwDbVemOQqZ86Y/b9z+h/PPaj4dk+/dJw/Pn+gMC6a/7hfTX4PcfRvxC6QdYjtv2Fh2ubSCx5pjld9G6i2ghGLxR/2+hzxaNXzWxNhJstwqMtYmXw5OIZPkASPU/ofzLtJ9I+Ns5fwYwZUT6awCkv+5Vf83rP82Pd0uCt7w1Gscv2v/b6rNF4s/XDZZwsvWE0zUCmfIB7PbLYPafLvTjMtzC+ZMygAGB9Nd5Pkh/3Zf+mt9/WPUjnH4rAjxvE0zyt89a6LfF+n97fTYvft09XTcIlhZCzUbaheXLx2u/LFVm/5HTj8vqwW/k/MEtuIxIf12A9NdsKuqH+s9tQ+13Ua6/hkA0gPTXbO6hDARxPWhAeO+QToIgiIzhTxkRBEEQF2EQi8qXowc99E2lTxAEUc/7GhCurYe+dvrEfXNtPbMst57/O+B+BgTd5b8KFjuYdfy2gu5GB2lW+d/Za6c9pN8go8P8gIgQKkzfP5GdFcvBlxMW5XU+3FK78MILyQ95+ZdIX4xUz2yXbzhyeWL5XyZPE+u/7PxDPZWn+a3e8a/Jv0j6HKT6R139nbwazu6ft8QVBgQVqno/dwHBMpfijWGFQLKdH/779l/jvAFUE0/THVbzrB3meyi2h+I2jlRetz/KvYzCcV54gfh5SKUvVgn1euZcnjgu9dNsY5RI/2XmHyrMtX388NN4hf3E7i7/3PR5UUv2j4r6Sz9Gk/qB7o2OBoSyXras2NXhRi5M04cfrbFer0s7Jjl6Wq4+l6ePltBDi+iLuTDS70BvzLwDEqmfi+iJZfTLDGIHy2WAOD7+9yYElMN2zlzu5RzkXs/bBFq+pZMXnhs/D8n0RRHVM6smFlqC/YvozQon/+ojJkpxU2Mqj9MWVdcARvvX5p+TPi9+2f5RkZ+yzfWe6GRA0F0PtrKHlY3Cqx3weFafGiYPG6zGM8xmM4znR00CT0/L1OcK6aNl9dA8/TUPvr62vd6Yo+8WqJ9r64m7JfsyXW4Ty+ReRblY/JowbLWl8I2Pl3/edfpViOuZ1ccJlHAjfjFrnP82MPLfefoy/SN9kinbXO+JDgaEbIRdOcjdVXHg4Lx9iwpg4Dhk8/W0fH1uB/nn6Lf71V/L6o15+m42l9ETt9UvZ3maZXdknHUY3fVgJFUnbPqhosO8uPJQubhfH17seD3dpC+HzNfwavIfv2CfFFw8mTX3vHwy7c9Iv2H8Mv1DNdcwsMX8LLB4/xw68hvTZPXEInpaaX0uL30J/XbfcOtHRN/N4Zp64g7RXR+2ssV8VnU6ph8qcgBAR+XAxg7POi6iT5ZJX1bPnEeTfg1v3upqVZf/GM5qi4e1h8gAkITY7kNgUnXjIAO//nhI9Q/dhWcksMZtB7TbQH5AkNUTc/W0XehzeenL6pV7RETfK6XvvqSeuIV+WZD0ZN9jXr5DrGhfdaQAye7U9loXXug4Q3/cSfqyemYgv3NP9s8t9Nec/Bf6H5B+UtMolS/PQzv9Nr/+ePHL9Q8d7kLBdj672Tt/UTqYMsr0qmvzsNCq6ibE3zwT0dMK6HO5+uicdnro7miqx+bUj6i+m1k/F9ATt9Yv81ChuxHzYpq2r3nI3+m0CS887zgP2fQ7Qn3ERGmymJzDyz+gmqfn/rpyWkpGv81Onx2/fP8wfRvKfnWXi8hlOllUDpZzWMkEtnfUyzaxy7L1tIL6XBF9dFs9dGe002Mz60dU311bP5fSE7fXLzNRH7HQACjGoX4q9b+YHPW/2/lxDpkXXiB+HlLpC8HXM+tPRrPFZNH8A4idV0zXef+bYG/NK+boWe3Pzj8vfWb8sv1Df4KhAEqup67Yy3FPkMuIkIP0xARxN9zPTmWCIAhCChoQCIIgCAA0ZUQQBEFk0BNCI0hfTRDE/UIDQhOGrq8mfTBBEBLQlFGO7iKy0W4H6CDId7O23MVKEMS75w6fEO5Lry0GWx9MEAQhQmf6a7PwgQzTdEubNhj6ZiG9NEePzdNr34Q+W1IPLao/JgiCqKEz/bWRWMcPTEy0s+MsvTVPL80Pn8ZRq9e+eX02D3H9MUEQRB3d6a9L+uPa45X6ZpZeWiR8OQ4U9Nq3os+W1QMTBEHI0b/+WkRvzdInC4Xn8J712QRBEIL0r78W0Tdz45cIf1P67P700ARBEDy601+X9Menx3l6a178MuGB29Bn96WHJgiCEKMz/fVWsVN97HoKlPTJbL21WPztw9+KPltGD83XHxMEQfDoZ2Oa7iJavPX7wQ+CIAiiU7rZh6CbcA8v1qs9f3GMIAiC6AP5RWUACF6wc9eI7PQ1niTs64tjBEEQRF+Qy4ggCIIA0MGUkWr6he+MtljIzNUO10qfIAiCANDBgBA7s1T1MN8i6SJHN5Y+QRDEvXCHtlOCIAiiDTQgEARBEAAuNSCw9NMZI/Oohz7XW/P017zkC+rpyC+8IltEUj9NEARx41xkQGDqpwEAGoyHTA9doY8W01/Xpo4nW8HeyrTW4xV200dafCYIgihxkQGBr59m6aNF9dcsFExGOlQ1DR8snQo9BOmnCYJ433SzMY0HVz/dp/46wHI+grteYG3YUJAg3K6wpI1zBEEQJ1xgQBDRTyv96bMBIHawnDkA0vUEz36C7lTFR/ppgiDeL91NGcWvSKBhWjk5z9NPs/TRgvrruvTV9Lf86SXSTxME8b7pcA0hwNIKodinamgx/XSI7dsU64I+elaY0hHTX9ekHzt4RhZ3FMFbANt51dOBjH6aIAji9iGXEUEQBAGANqYRBEEQGTQgEARBEABoQCAIgiAyrj8gSOqvS5FB19WTN4pa6bF19zoKC9WE62d5rUz/vHzvHdKfE0R3XH9A6BL1EQv7CR8Kf7olPbb+ZEDZz9P8Vu2Yrijfe+eW2pcghs5ldipfitjBbHztTLRFxUgBkh1jW9xNl48giKFzX08IBEEQRGsGM+gUM44AACAASURBVCDU6q+r1hjO5vgzdXXreWT9OHcf+TBH5eNl/XZ5fl8t6b0r8l9UcPsujgZuFaYfIYo8GAqg2VVrCLzy5XFk+Ter1kBk9N5s/bhq+qfxqib8yId53Fperz/Pfuu6fqomN82sntw0fFZ/JlOPLpd/giBSBjIgsPXXfDJT6dhCeQ+0CLprQ0usVK893wATrXTcg63sYc1ThfZqBzzqp8eNXM9dmX8Ni2lWvvEcVqLBfsojiOHM0r9vEyDMNd0nawjs8umuB4ORf1l4+vHYmcFKjOxvOlzPQGLNkG825+vPgbfnGeZbQDMesBmPYYUaJo95GnL9Q06fThDvh4EMCCz9dd+U9NpZ+mfHVw5yN18cOHACdvjT/CfYF/TdwZn+u8/857TVe4vpx4OlhcTw4Ps2tNDCsuD/ENGfv8ZA/JoAyRs+nuVBpn90oU8niPfBQBaVGfrrvlFHUJCgdi1X9jiAXssnlL5s/CL68QDP2wU8A9iuSjYorv6ch0T9SevTCeL9MJABgaG/7pv4FQkmHP22xPG+aZR+C723qH5cNbE2Emy3Coy1iZfDk4iI/pyHRP/oQp9OEO+EgUwZMfTXmdZ6kc/5VuqzT+MaVc0F1Oq5A+zC8/TPjq/Nw0Kwqps42rerwx/13V1TLh8v/zlt9d4i+vF83WAJJ1tPOF0j4OnPeQjUL7N9BfTpBEEMZUBg6a9TrTUMj6HPRuG3CSZeWcF9jOdcz53qtbeKneq1vQVQij9YzmElE9jeUb9dtG8Hyzm2uZ47y/+qly+yVZfvJP/r6Vn+U9rrvXn6cd09XTcIlhZCzUY6Jojoz3mc94/z+mW3L1+fThAE6a/vEd1FtHjD/B6+D62a8L0HmvIhiAswkCcEQgrdhHvY2KD2PGVFEMS9MpBFZUKK4AU7d43ITl/jScK+pqwIgrhnaMqIIAiCAEBTRnwa6bk5emqu3lqWHvTYpCcXh/Tld8d706vTgNAlHD01V2/dc/pX58b15DxIX35/3FP/FIHWELqEqafm6K11F5ENWDJv03Skx1ZNH97DBuNlx+/13LW+m/TlxO1DTwhECR1PhoJwRy95EsR7YyADAl8fzdYfM/TGXP00oBaPRX7hFc4CjPBsPTVHb61mumdbA6DBzuNxm8xWCuixRfXP+hRassVzaTwYtp6cxz3oy+uKxu/fUvrxyvqr6j+kV78HvfogBgQRfTRLf8zXG7P00zqebAX7XDs9XmE3fSydtKzwAFtPzdFbxw5m4zHGVggghDXOjjearhHQYzPrNyfdwxBuyvPfw9aT88Pfu76c3T9l9eN968NJrz4cBjAgiOmj64+L6I15+mkFk5EOVc2OL53SPH6f+uq+Eanf/KdPMHD+dDBsPblg+JvXl7Ng509OPy6qDye9+j3o1a+/qCyrjxbSG7P0yQGW8xHc9QJrw4aCBOF2heXJxq4r6rllEdZj508Hy4oTesB6cgDpdIWN4311eFycfxf6ck7+ZPTjfevDSa8+KK4/IAjpmxn64y70xrGD5cwBkK4nePYTdOdO3Dmiemz9CYYSwqos9ID15ADSu9Oa1rorfXkbJPXjjc4v0qvfOgOYMhLRR7OOS+qN1fS33T3e1ei3eXx8Q8IMmy2schesxPTYZdeRPtWQbJ9rOvWQ9eQ87khfLtT+Vcjox0XPL9Kr34NefQADgog+mq0/ltIbxw6ekcUdRfAWwHbedrRn6bf5+diEgOEx3jJSACisV2wYemxW/aomFlqITa3/aNh6ch73oS+HQPtXpymrHxc7v0ivfg969eG7jEh/XKCfeQXdjbB4mxcu8sRVqdWXX2te646h68sJg3hCIETp4WLAfTogekdYX05tRPTL9ReVietCOoXrQ/pyYiAMf8qIIAiCuAg0ZcSD9Nekv75hmtXve9dzNy//vemxaUDoEtJfs7lz/fUQaVS/Q+8/fdOi/PfWf2lA6JLYwaz2bYVMj1y3JVJ35e8wmOmLo5p+Q7meIB3lrxe6qP9rxt8FQ20fVYfrF+7Ez+SSHTHU8l8QGhCIEqS/lkOFqr7naZeu0eF6NrDJ5XVjjFc7jJ7aThlS+7AYyIBA+mvSX3PKJ6G/ZravSP2z9MqH8rkwTR9+tMZ6vT7u2JVtX8H+L9y+lfD7T70+PA17Wpy0z5/+raUeWx1BQYhdUHiyjgM4y+KUK08/zWgfkfJz2/9+GMSAQPpr0l+zkNNfc9pXoP5F9MqAhsnDBqvxDLPZDON5pgHppH35/V+sfevg9596fXi6U1grOh0yL1YnD5m5GsV3YdYs+Irpp2vaJysDs/xC7X8fDGBAIP11v7x3/TXAb182fL0ycNpHAMRdvjLQoP933j48fTgQv+yRaNPDIKtPNeBMYdFWjx1gObeQQIFhe6kewj+9uxfTT7dvH7H2vw+uvzGN9Nf98i701yxE2peDtF6Zm0C9vjtNjNP/ZfXZDETij1+wTzwsTBWB8yG9QM87XIOKAyxneXwqTNeD7eoIlsFl9NO9t/9wuP6AQPrrfnkX+mteHDLt24VemQdD3w2A3/971GcLxZ/elRuLR6ivD9CSPZ4rf9tCj12V1i6EsUjv0OPe9dOXaP/hMIApI9JfAyD9tbT+uqZ+RNuXWf+yemVe/Dx4/V9G33yeVmX/qdWH5z/bIVQMeHadh6mlHls14br5dB8AqDCnGpC8dnP+n1HVRgLtL1y/w2YAAwLpr/N8kP5aUn9dVT+i7Vtb/13olVnxi8Dv/3x9d339nv6muv+w9OF52F2Y5rW6H7XUY8cOnndTrNf5W0AeJthiXliU704/XVV+0fYXqd/hM3yXEelpC5D+ms0d6qFvqP+rpg/vYdPwDSpiSAziCYEQhfTXbO6hDLcKbWi8B66/qExcF9JfE5LobgRbS7XdMxoPbprhTxkRBEEQF4GmjAbOvel1CYIYLjQgDJyL6nVV/Z378AnifUMDApGRWiXt9+zDJ4h3Dg0IBFI7pQ0lDFvJ5wiCuA/kBwQBvTRTH6ua8CMfruunamIz0wVHLszC7kS23hZordcViF81/dN4szybx62R7csnpDeWy78Qewuz5a5pKIIg7oiOnhDYemgRfezb8wzzLaAZD9iMx7BCDZPHzOcopLdtDy/+2JnBSozsbzpcz0BizZC/ui9bPlm9tHz9xHAcel+QIN47HQ0IbD00Xx+b2hzj1wRI3vDxJG5RvW1bva5Y/MHSQmJ48H0bWmihuBlTrnzp8fb6YtH6IQiCYNPRxjSOHllGH9u33lY4/gDP2wU8A9iuSnfT0npcCb20UP55emWCIIiL7FSW1Mc20tu20OuKxq+aWBsJttvU/PhyeBLpQo8roZcWyj9Pr0wQBHGxt4xk9MGietuWel2h+PN1gyWcbD3hdI1AVo8soy/uWv9LEMR75QIDgrw+WExv21KvKxC/7p6uGwRLC6FmZx8R70KPzNYbZ6ky9dBy+t/8I+M2tMOH4GlXNEG8N8hldG1uSG9MEMR9QxvTCIIgCAA0IBAEQRAZNGVEEARBAKAnhNtEd9spOlQz/RB9a8VHVZSk5yaIe4G+mPaO0J8MKPs5xh1+LjN2Zhg7OCyOEwRxu9ATwrtBxUgBktZboiXRXXqCIIiBQwMCQRAEAeBO9NdqMe3Ih1tMXEQvzcpfZfq8413rufXj3H/kwxyVj7PSV2H6EaLIg6EAml2xhsBtn9KdfZM1DDVrT1sDDpveIkQuPSsQxNC4A/21jidbwd4aZ/GvsJs+lqYm2HppXv5014Ot7GHN0zRWO+CxkED/em4bWmKl8c83wEQrHWelH8OZpX/fJkCY11PBCivSPq2JHczGY4ytEKlUL0t/SdvwCGJo3In+WsFkpENVs/SXTmnXL1svzc5flv7KQf6TOHBw/HzAhfXcWf6b1Q8bfvsQBPEeuAP9dYDlfAR3vcDasKEgQbhdYXnyJo1E/tQRFCTY1YW/iJ675/Sl9d0EQdwD96G/jh0sZw6AdD3Bs5+gO8Xfs/TSnPzFr0gwqQ9/ET13V+lX0YW+myCIe+D29ddq+v/Z0xs8vTQrfwF2YfoNhHytWtVNHO3Sl9Bzn+f/9Lis/ppR/ky7vTDV6uOl353ruTM+viHJB2aCIAbJ7euvYwfPyNTRUQRvAWzn5btlll6an79gOYeVTGB7x/SLdulL6Lm3ip3G7y2Aqvy11l/zyp9qt2F4nPar13MDAGIHmxAwPHrLiCCGyv27jEgvTRAEIQRtTCMIgiAA0IBAEARBZNz/lBFBEAQhBD0hNKEHfTRBEMRQIP11A/rQRxMEQQyF+x8QdDcTq+UkSLYbzJym7xxl+ujaLcMEQRC3zR1OGalQVbU0nVOQqs03SAz7/D35q+aPIAji+nQ0IKglfXK+azZVL1ftQVJNP92cJKLP5uqldbiRC9P04UdrrNfr+h3BcboRS3n4IBi/gD5aOn+M8K3qp5mem6kPPykDrZ0QxD3TyYCgux6MXL98opeO8ZoASoWv4MODguQt95py9NlCemkNk4cNVuMZZrMZxvPn6o1oqo6niYJwdzwqrY+WzB8/vED9tNZzi+jDCYJ4D3QwIFTrmXP9crALD3fjupsrDVSMlAT7l/ySytJni+qdi3EAiItz/YUPs3gLYDPHsrG+WrD8jfMnEl6gfqT03Dx9ONBe300QxK0gv6jM0zN/fENiT6EDmCoJoDxCfQEmSoJNDKRXJYaeuhO9dAgrU1eopp/aUINMZSEb/0XC8+pHRo8tog8nCOI9ID8gCOmZJxiZUyj7FTYPazw+JlBEJW/SeudSdM4K24mHhakicGL5+AcRXlKPzdWH57TQdxMEcTN0MGVUrWc+6qXT45OJgv1LjGCXYDIprh+IxC+rdy6STZkYT9k8uWz8QwgvoecW0ocD7fXdBEHcCp0sKgfLOba5fvlMLw18fEugKNm0x8c3QFGQMD9hdh5/e71zVYQ7hAXHv2z8gwjfVs8tpA8HZPTdBEHcBuQyIgiCIADc5cY0giAIog00IBAEQRAAaEAgCIIgMu5sQFCh60P2BA0wf7kao5vIzsqnmkdlRiSaju7ejyKjUf1y+kfv+vUB9k/iotzXgKA+YmE/4QP/l9dh6PmTpaJ8sTPLpIJbJFfL2I3A6R8H/XpfO8av3T9VnQakK3NfA0LsYFbegKWa8CMfZbWQ7kapXO+SVOXvnrj38vUNs/4y/Xrd69q6K/4E1ip9cQ7iykbocD0b9j3fMN0A9zUgVBG/YJ8omDwWRwQdUw0ngjtxSF9NEPXoeDJO5ZFq1cly8kcVpm9DCUOEveePYDGMAUHVS/rswvxoNgdrmkdFc7Veum6eOsbLPjmVuelTaAhx7LNy+mq+PpqVvzT9an34sfxs/XUhjZZzy6O6+q2aAz+b4+eVj4d+nBuPfJijpuH59cfuP3L6cSF9OLP9WPXH0a+rZhqvreFE4tjoDl2if55FNYWWbPGcn1uqibVXilM14XtPp3/bW5gtdw3yTPTBIAYE/XEK7FaZfnmOPQx4Jx1ag/GQ6Z9P9No5mYlzbFXeYcQveyTKw+FRVB0pQGHHrZy+WkQfzc5fvT78mDZLfy0Pr355sMvHQ3dtaImVlX8DTDR+oJPw/PpjlU9OPy7S/rz2Y9UfR78eO5iNxxhbIU4+BLVs8vQr2z9zVJgLDeGmsL4Rv2CfaJgWiqs+TkousxhO4y8YEn0wiAEhcJZwcnczYjgnemcAqNdrC3HSKVU8nnwPoQu9tog+ug62Pvw87bL+OkdGTy1Zv1JUl182fLn+6o/L6scBfvuLtN9QEanf/KdPMFB4OgCQP6Fr08IAWppSIoZDR99U1uFGNo73dUfdtFhwE/7CgKIU/iaqfxYi7ZTeVAc+jjBRQmwOj7Syem1JfTRPX51mRrL8PPqOn4FQ+WXDy+rVWfUj0v5XrF9ZhNsnfzpYnt2QxM4GYbSAqQZwPqRTSnMaDwZJRwNCgOW4bQvrcG0DiTXHLH9K0F1Ei+JvlHq9syDxawJMRtA/PEBJ3vDxeEBery2sj67MGFtf3Yi2emr5+m2NbPmFwjPKd+32Hzqi7aM/wVBCWJWFDrALbSweVbw+aEj2z6RQHyiDmDICErzlXSTTZ5/C0muXyU7+MsEOoTLB4iyspH5aWB9dlz+ePlwUGT01I/34FUnBDFvdPqdxVdZ/Fs/0LHPV5T8nW3g+W9AUqT+env2S7c+jpv54fHxDwgxbV3+89MX6pz7VkGxrPluL7MuJkydMteKXEomhMYABIf3o/SR/e2I9xeu+PIccYvuWKZor9NrFuJZWgkmmgfZLC8+7UIGinHdIKf20sD66Pn88fbgYMnrq8/qdHdIPsLRCwPAY7cMuXzEexT4/Fizn2Cp2Vv4FUBe/AkA5fwWJX3/s/nO59ufBqj9+PjYhYHiMt4xq6o+XPrd+VRMLLcSG1WeDHUJFg5bscT4e5G852dAOb0rRdzeuwfD116oJ33vo7ItpxC3TYl6J+k+BfuYFdTfC4m1euIkgbpWO1hAI4hLQBUeOHuovfzpYUtvcAzQgEATRntjBbHztTBBdMfwpI4IgCOIiDGBR+bbh6Z1b6Z8JgiCuAA0IkvD0zqR/JgjiVng/A0IXeuB7ZvZb+Psf/RZo/pAg3i/vZ0AQZuh662vn7yv4XP0KDRwEcYcM5C0jFbq7hq2lMqMk3GK1LEraVJjuGsbhuIXVMpNt5e+ZW8DC1qCkP4C1WiKI8+MGck2SHUWwASC0CkZIHW40xdtWwcQAkACKkhR8TIz0eyl/OX5e/vLf2KknpongTp3gsz/9jw8X+M9+9Pvp/wm/j1/43R9nf/06PvvRr+GT7S/j5waAvwY+/+rf4ovf/HN8QZ3gsz/9h/jkm3+OL+Rxzn4Lf/+dn+KL/9k++9tX8Pl3dXym/TIA4Avh9/HJ7/74+HuCIAbBIAYE3fVgK1tYcwdBnKoDHnUgDo7HDViYjwPEqg5zbWNtfixshNGwmFpYjZeIoabxPekIlkH2WpyTThnZYEj3NEweLKzG+UBzqkdmp99B+fP4ocL0vYr46/MnRbzHF7+5Ty/iNtKLfOUPP+DnD9/HJ9/MLuTqV4ST+Py7v4PP8H188Zs/xhfwFXz+v/4Ofv57/ze++N//227KQBBEJwxgyijT667SwQAA4sDBUY/elR6aR53euoH+txVd6LcBOf21CH+LT/7Hwl19LHox/zp+rv0tvngI+2/xhT/+iM+//R/QtBNBDIzrPyHw9LrX1kPL6pmF4pfRbw8c9csAfhmf/envn/79r396lewQBFHP9QcEnl63Uz10C/pOvwv98oG2+useiX8C4CNjKoogiKEwgCmjTK+7Ng/fmVV1E0f7cEd6aK4emJM/Xvq1emfecUn98gEZ/TWAv/opvoBfRuN5sPgnAD7g57+XrSmoX8fn3/lQ+MGP8Un4AZ999+uHKaLPZxN89ntfb5NLgiB6ZAADQqYfTiawvaN+uGgf7kQPLaIHZuSPn3693pl3XEq/fEBGfw0g3uOTEPjsT38ff/+j38fff1f0gv1jfNH6CBi/k4b7b38N+IuPJ7/4wu/+U3wR/wk++1Ea98+nwCf/+49r4iMI4lqQy4ggCIIAMJAnBIIgCOL60IBAEARBAKABgSAIgsi4/oCgmvAjH2Kfj1Wh6x14fHQXkW8O0Fd0Xr5W+uxrlU810w+5R1FN+h21H0EQvXD9AaEJ6iMW9hM+8H95m1SU75b02fqTAWU/T/NbtWP63tuPIG6c629Ma8IQP9enu4hs7eRPreV3PZZPNV2sjaP8b7taottvoqsYKUDC2tI9xPYjCOLAbT0hDJYQ1nic3hmP59grNtZic2AXQTV9eBNgM8/yuNrh4ZG+DEEQxCmDGxDSOXP3sGs5RYdbN4+umvAjF7ruws9/41eEz+e2Ix/mqCrlLA3pufcYL/sEysOH0/ydJFWe42eUTwhW+XQ8GcA214EDQBxg6RS3r6kw3eNahV/YNc2vXxWmHyGKPBgKoNlVawi88uVxZPk3h7rGQxD3zaAGBNX0sZ5knv+TmYfM5Dm2EFaG1LCY7rDK7tCtRIP9dLzs6K4NLbEwH48xnm+AiVYZSzeF0PE4UZC8feT/9gCvfGyY5cvkfCz5X6r33mThrYonHFb9xnBm6d+3CRBa44o1BHb5dNeDcan2IQiilsEMCA9PPjwjwWbWRvLG0l9X66vPkdFHa7DzO+C2ao3WiJavWfju9eJ95Z8giK4YyICgQFMSthyOCeMOWOAOWZ7TNYQNbHgNXElSyJZPKHz/evF+24cgCBEGMiAk2K6WmFkhNFt0T4Ig8WsDy2kX78hnd9DatJ11tHFynPLJHu+ba6dPEMSBgQwIGcESVqbCrr8+NL14VOurz5HURx9QoY8UIHnDR+CgvV7ko1xt+jk15WPqs1nlC/C8BYx1YSFY1Qt67Y704sKUyyfaPgRB9M2wBgTkqmmj5rXNAEsrwcSrU0wz4lTsTF+9APZVc9Qy+ujCGkLkYTHZw1rlaxGp9hqGlx5fT/FamT6vfGx9Nqt8sTPDfA8scvX3eoq3gl67E724ENXlO8n/elrTPgRB9A3pr4nhobuIFm+Y9/Z9aIIgqhjcEwLxDtFNuMf5rJ6nrAiCqOO21BXEfRK8YOeuEdkKgEz9cbHXdgmCyKEpI4IgCAIATRndPa302QRBvEtoQLhzbkmfTRDEdaEBgSAIggBAAwJBEASRcf0BQURfreolPbNZ0jP7cF0fUeTDNc0sHregwFCh1+mdD8jor9nxq6Z/Gm/5s6Ey5cvqzzSP9Vddvvb5JwjifXD9AQEAV1/9OAV2q+MHaGCcyePenmeYbwHNeMBmPIYVapg8Zr5T14Od6517+IANL/7YmcFK8t3XOlzPQGLNDl8sky0foMF4yOqvUl8tl3+CIN4HAxkQ2HrlwFnCOX7dBc6Zfjm1ZcavydEhdKCkV0ZcoXcG2uuvxeIPlhYSw4Pv29BCC8uCH0OufOlxtr5aPv8EQdw/A9mYxtEf6yb8hQFFKQZ5E4taHUGBAs2LYJwkKRi+s/gDPG8X8AxguyrZkmTKl/5YUn/dY/0QBHEzDGRAYKHDtQ0k1hyz/C5adxEtBIPHr0gQYjMW+fCOChVxsycE0fhVE2sjwXab2lxfDk8ikuUDcDCIthkUGtUPQRD3zECmjHgkeMuvdo31yAF2oQa7sFCq6mZB/5zTVn8tEn++brCEk60nnK4RyJQPAAT01Ux9tkj9EARx79zAgBDgeZtgYkcC+uiaGJZzWLneOYqwngK7l/L9cHv9NS9+3T1dNwiWFkLNRjomyJcPCLF9m2LN1Fez9dn8+iEI4t4hl9Gto5rwvQea8iEIQpobeEIgCIIgLgENCARBEAQAmjIiCIIgMm7sCUGFrqv8DVO621JBQRAXJle3CP7W9XO9yzvs39cu/7XTvwA3sA+hgPqIhf2ATbB8t59XVHUdH/ARH4OG+yUIAP3XX5/x608GlP0c43f6Nblrl//a6V+C23pCiB3MBvk2jVqQ0/lwix4g1TxK+4r/TmR3+vHOI/Lh1+0BUE2sbRu2/YQPwlnrMP1WqDD9cvoN93qU8ue29SzV1p9k+3Hj7wIVIwVI2mxJP6m/kjyxcfgW/YOXvlD71pW/g/4lVoja+leLYs7IL3wf/PADufq/ILc1IAwU3fVgYJ/K4eYbwPBw2HcWO5iNx5m4Lv1nhShsHFNhru30zmM8xni8wn5iwz3r0SrM9QT7bcM9Cp2lL0eynRfy0GRQV2E+jbBbZWHL9dsknpr6k2s/fvzXJWvfxCrIC8/lidzwrfsHL/1u2rd9/5JENfE03WE1z/O/h2IX8y9b/5fl+gNC1Rzq2RpApqauHf1P7zDMUVVCfemtczmcc5DLPW8TaOdbgg/lXWgJ9i/5zuRHTJQQG6cgt9uE0Ban+VTNNSbJBs6rSP4YZWyZPhtJfTZL/40YztLB0f0XIHX/NRR819afZPtx4xdjVKsvz++APRgKoNlVTyis9v+ABwVIdkd54cu+wbfzhPqHTPq89hUpP7cQnPODdZyTfuxguQwQH/LvYHOSf5H6b3D+9sz1BwQhMhPp2ELV/Zfu2tDyEXi+ASZN1Q9smHpodQSlJJeLX5OSrfSI+jiBEm7QbBpSx5ORYLOsvu/RXQ+2soeV3aWsdsBj3fWsVfqc3AnosxXDq50SENF/HwugY6o1nTph1F8n7cduHz4sfXkMZ5bWyzYBQiu7Ey1Yedntn11gp/kgo+JxoiB5O3fmtqXT9M/al19+gNO/OOcH+7hY+oUClKaW+OVvcv72zY0MCCxK+uZM/3xOv3rr/E7ioIRQHirmkXU8GQrCXeHCEb9gn2hYmIU7ooV2El53bcCqewzO8rc63mXFgQOn8sft0mfDq5/8hEr/za09lNKUAF//nX1kKIoQeQtgO0eTay+7/g4ptGs/4fhZdKAvZ7R/sJxjf1CTeDVqkxq4/aOb9Nu3L69/8fLX5Pzho7sejKSkt2eWv9v0Zbn9AaHiDq/7+BUYXmHRyq56Akk75ixv6KrvFuhTaMkWz0Ep3GqLZJLd4fhPwD48htdd2MoWzx9VqGrhlVu1/gmlljbppwELU3alaTvh+slSCxysylMyugnfZ4ePndlhjvlt4p24mJj549VfsR7atJ9Q/Iz8pYlJ6stZ4VWYvoeHt+MT2OZtUXoCY+WP0z86SZ/XvuKc9S9e/jq8fuiuD1vZYn4ymnHK3/f1qyG39dppFfErEkwE9c896K0r0ldHCpDszhcdFxqS/fN5+rGD5cw5/tL0YRTCJ5hgvZ6k/5F9NMFeA6PVEo5w+dunnz5d1dyySOuzG+q/4wDOZgpj8QjVyduSkT80r7+m7ceOn58/eX05o/0r1gCClz0W3hQ6gqzNOPlj9Y9O0i+mVdW+EvDy1+j6UU86GOwxL89A8MrfUfpdcf0nhEzLfHgk5eqfs5PnQIBdMqeBoAAACeBJREFUeK5/PqcvvXWevnlIv2paIe0Y54uRAKCa5uEb0qpuYl0MHywxm82O/6wQQAhrdrzY7ML0GwvFOM7eDGybvmz9qOn/L34j+jx+hv77LHx2PHkVO39E669t+3HjF0FAX15fQHb759rzwpSP/jiBUvnlvWrY/UMyfdn25fYv3vkheP7UZwC6G1UPBiLll06/WwbwhBBgaU3h2x4iA0ASwtqHwITx2+zrXsl2jpkTI1jOMfI9eJENIMF2WxU+1VsrSTu9Ndx1Fj+QhFtsCvMGwXKOkbuGlxYAYcUcqP5kQAmtyotE7LziyY9gKwCSBFtr3mgOMc+f7Rmws/ytlpdPv7J+4hfsHp+wjmyk984JQqtYPwGet1Os7QhGmvnT9o8dPH9wC+GBJLRKj+VyyLafPLm+PC1jElrHqSsB2O0fYDkfwV1n5xeQ1vFKfC2N1z+k0pdtX27/4p8fIudPLeoj0vsXI+s/WRmya5NI/Uul3zHkMiIIgiAADGHKiCAIghgENCAQBEEQAGhAIAiCIDJoQLgrBPXgBEEQFdCAcE+oj1j0YtokCOI9QAOCLKoJP/JR3lipuxGiSxsNh6wH97M6KssMuXppAb2xgD5ZrZXHiYRn6LErwp/roRnlJ4gB0cOAUNrCPzg6zl/8gn2iYPJ4qiqYamiwuavH/A0dQb10vd6Yr09WTR/eBNgc5GGjgjyMH56px76QPpwgLkFHA4ION3Jhmj78aI31el3aEczWI3M/MHFyh1YKL6zPbpI/nh63mP9UZ3siI9On0BDiOB7w9NDs/PHrh6cHF6i/Yhq+i7MkpPThDajRS9fD0ydnO483yxp5GD88U4/diT6cIIZBh08IGiYPG6zG6Rb+8fz5cBfH1iPreLIV7HOt7HiF3fTx5KKW3qFl4c/0wB3lj6fHZeid45c9koIdUx0pQLgTLD8vf/z64evBefWnYTHN9MvjOaxEg/10nVvcOj03S298GkFJn6yOoCDEG4pTRqzvRVSFF9djE8Qt0+GAkGB/UCADxy9GiOijFUxGeiaIjBEsncKUQLXeWlwPLJg/nh6Xlf9MEZzeNKa+8+N0kag+uy5/vPrhIVJ/xbRjBBX66fb68DROZzZLL/LMdY4qjxBfnw3w9MkaJqPjgFf1vQW+frlGjy2kDxctP0Fcl/4Xlbl65ADL+RbJZIG1V/VN20vorXl6XJ7eOZ020qb6YQrhcE1rqIc+h1M/suUDIKVf7pJKPfcplfps8PTJITZOYUCuGPD4+uU6PbaIPpwgboP+5XYieuSCXlfVXXj2E3Qn+33felghPS5f7xy/JsBkBP3Dw6lJUloPDXb9cMN2WX8t9OEN4q7VczehrE+OX5HgQTI8R4/N1YcTxG1wgddOG+qRK8Mz9MCN9dk18TP1uCz9df6zHUJlgsWZulgwfB3c+ikjpgcX1yvntNWHC1Knl+bpjbn65LT+F+bxE4bmtHBcKDxbjy2nDyeI4XAR/TVbj+zg+bGgv01CbOend79HPXEevvgJuib6bHb+eHrcOv11no9daMPWEmxLFzWx8DUI1E8xD7V68Nr6E6W9PlyEWr00T28soE8+L3/hq1aNwlfrsWX14QQxFEh/TRAEQQCgncoEQRBEBg0IBEEQBAAaEAiCIIiMCw8IgnrmM/XEhVDNo6QsT59kZM25VvsRt03V+ddBnHT+inPZAWHgemb9yThKylrtyCX6RtX1+psKlXGsi/jvnQ7qTwY6/67PZQeEQW/bVzFSCg6bRkH5+mWp8CfHOS6eFrDleQL6aZE0WPpp8Uiwtm3YlTcVOlyv5pho/THjZ+WLo7/mpM+VF3L12s3yV90/GfXHT4CtB+ceT39Tff6J9T+p/iVbv3cErSFIw9cny4XP9MqJVZDjnbt42mffxNN0h9U8T38PxT7Pf71+WiQJln5aOBaY6wn22yp9nwrTt6GEYYXcT7T+WPHz8sXSX3PS59a/rF5bpH+y6o8PWw/OPy4Cq//J9S/SlxeRHxCE9dOsu8vTEdocVSUko19m6a3zOxAPhgJodvUc5qj2DoSnT0a6+7U2fV74D3hQgGR3dPG87JMG5eMQO1gug6NLL3awKeefC6v9ePppMVRzjUmygfNa84O9hdlyV3FApP4E4q/NGE9/zUmfV//Sem2B/gkw6g9g69s5enDucbHzrx6x/lV7/grVb1M9/u2un13oCYGnZ7ah5XdQ8w0waaKe4MPWW+c2zTm2CRDmmumTOUwNxkNmy+Tpt8v6ZAD64xTYrbI7kGrbZn347ASeHtULjxMFydtRncbTdzej+tGdpZ9mtl9T/XQlOp6MBJtzBWlGDKd2hOHXHz9+GUTSLyIxdSlCRf9k1x9H387Tg3P14SLnH6P/CfWvBudvXfl5evzOzr/rMoApo2o98zlt9cs8vbUIfP02S58cOEs4QeEOpMK2yQy/nGOPBbwovZOaJEX1RBflO6K7HozEKqTP00+LtB9fP83Okw1Y7dee2PUnGb+A/pqXfpGz+hfSa/Ph673rENW31+jBhY/XIaI/5/UvxvnLrV9BPX5H59+1uf6AcG29tRD88Ex9sm7CLy6MVeiv68OrMH0PD2/HJ4zN26IwBy1SvuKUXf2isO76sJXticfnLJ9l/bRQ+jz9NCN/ugtb2eL5Y+nToqroHR6n/oTiZ9UfT3/NSb+YSmX9i+i1+e3L13vXVZ+ovr1ODy56XIxq/Tmvf7H6J6d+hfT4A9HHd8BF5HZMGumZW+iXO9E/K+Lhy/pk6HBtA4k1xyy/hdBdRAvB8BVznMHLHgtvCh0BAqHyBViO2bcs6cVoj3nTJzAhfThPP83OX4IJ1uvMVqikCjp7DYxWy3MZXhle/QnFz6k/lv5aIH2AU/9cvTa/fY9xlfsn7/ccfTtPDy6iD5dBqH9xzl9W/Qr17x71/BdG/gmhsX5aTM98Tlv9Mk9vLQJDH83VJwNAgrfD2VAqHy98Vr/TwhOD/jgpfHNBtnwqdDeqvxjx9NPc9uPop3kES8xms+M/KwQQwpoJDAYAv/5k4wdHf81tP0798+LnZ06gf7Lg6dt5enC+PrxZ/qv6H69/sfXv7PoV0ePLXl+GQwdPCE300ww9s+9leuIE221V+Pb6ZZ7emk+I7dv0oEhOQuv46MvVJwd43k6xtiMYaeKn9SMQfjkfwV1n9YssjtXx4iFVPvUR6fXbyPTOWRJZ23D101n6rPZj6qc7QYcb2ciHIS2KYCOENV4iEKg/Wdj6a076vPrnxs/NHFfvza4/vr6dpwfnHWfnX7D/MfsX4/wFv35F9fjtry/DgfTXBEEQBIAhLCoTBEEQg4AGBIIgCAIADQgEQRBEBg0IBEEQBAAaEAiCIIgMGhAIgiAIAMD/D2DA2goUAPLgAAAAAElFTkSuQmCC;" vertex="1" parent="1">
          <mxGeometry x="20" y="269.99999999999994" width="258" height="240.71" as="geometry" />
        </mxCell>
        <mxCell id="XeXQdiVeyh-9FNKgozW7-7" value="" style="rounded=0;whiteSpace=wrap;html=1;fillColor=none;strokeColor=#FF0000;strokeWidth=2;" vertex="1" parent="1">
          <mxGeometry x="20" y="288.71" width="60" height="10" as="geometry" />
        </mxCell>
        <mxCell id="XeXQdiVeyh-9FNKgozW7-8" value="" style="rounded=0;whiteSpace=wrap;html=1;fillColor=none;strokeColor=#FF0000;strokeWidth=2;" vertex="1" parent="1">
          <mxGeometry x="30" y="428.71" width="190" height="42" as="geometry" />
        </mxCell>
        <mxCell id="XeXQdiVeyh-9FNKgozW7-9" value="ImageStream" style="rounded=0;whiteSpace=wrap;html=1;strokeWidth=1;" vertex="1" parent="1">
          <mxGeometry x="30" y="690" width="120" height="60" as="geometry" />
        </mxCell>
        <mxCell id="XeXQdiVeyh-9FNKgozW7-10" value="spec.strategy.sourceStrategy" style="endArrow=classic;html=1;rounded=0;exitX=0;exitY=0.5;exitDx=0;exitDy=0;entryX=1;entryY=0.5;entryDx=0;entryDy=0;" edge="1" parent="1" source="XeXQdiVeyh-9FNKgozW7-2" target="XeXQdiVeyh-9FNKgozW7-9">
          <mxGeometry width="50" height="50" relative="1" as="geometry">
            <mxPoint x="390" y="620" as="sourcePoint" />
            <mxPoint x="440" y="570" as="targetPoint" />
          </mxGeometry>
        </mxCell>
        <mxCell id="XeXQdiVeyh-9FNKgozW7-11" value="Ref. Secret" style="endArrow=classic;html=1;rounded=0;entryX=1;entryY=0.5;entryDx=0;entryDy=0;" edge="1" parent="1" target="XeXQdiVeyh-9FNKgozW7-12">
          <mxGeometry width="50" height="50" relative="1" as="geometry">
            <mxPoint x="340" y="720" as="sourcePoint" />
            <mxPoint x="220" y="820" as="targetPoint" />
            <Array as="points">
              <mxPoint x="320" y="720" />
              <mxPoint x="320" y="820" />
            </Array>
          </mxGeometry>
        </mxCell>
        <mxCell id="XeXQdiVeyh-9FNKgozW7-12" value="Secret" style="rounded=0;whiteSpace=wrap;html=1;strokeColor=#000000;strokeWidth=1;" vertex="1" parent="1">
          <mxGeometry x="30" y="790" width="120" height="60" as="geometry" />
        </mxCell>
        <mxCell id="XeXQdiVeyh-9FNKgozW7-15" value="Service Account" style="rounded=0;whiteSpace=wrap;html=1;strokeColor=#000000;strokeWidth=1;" vertex="1" parent="1">
          <mxGeometry x="620" y="690" width="120" height="60" as="geometry" />
        </mxCell>
        <mxCell id="XeXQdiVeyh-9FNKgozW7-16" value="spec.serviceAccount" style="endArrow=classic;html=1;rounded=0;exitX=1;exitY=0.5;exitDx=0;exitDy=0;entryX=0;entryY=0.5;entryDx=0;entryDy=0;" edge="1" parent="1" source="XeXQdiVeyh-9FNKgozW7-2" target="XeXQdiVeyh-9FNKgozW7-15">
          <mxGeometry width="50" height="50" relative="1" as="geometry">
            <mxPoint x="460" y="730" as="sourcePoint" />
            <mxPoint x="510" y="680" as="targetPoint" />
          </mxGeometry>
        </mxCell>
        <mxCell id="XeXQdiVeyh-9FNKgozW7-17" value="&lt;b&gt;Ref Secret&lt;/b&gt;" style="text;html=1;strokeColor=none;fillColor=none;align=center;verticalAlign=middle;whiteSpace=wrap;rounded=0;" vertex="1" parent="1">
          <mxGeometry x="290" y="270" width="70" height="30" as="geometry" />
        </mxCell>
        <mxCell id="XeXQdiVeyh-9FNKgozW7-26" value="&lt;ol&gt;&lt;li&gt;spec.strategy.sourceStrategy.pullSecret&lt;br style=&quot;font-size: 11px ; text-align: center&quot;&gt;&lt;/li&gt;&lt;li&gt;&lt;span style=&quot;font-size: 11px ; text-align: center ; background-color: rgb(255 , 255 , 255)&quot;&gt;spec.strategy.sourceStrategy.volumes.source&lt;/span&gt;&lt;br&gt;&lt;/li&gt;&lt;li&gt;&lt;span style=&quot;font-size: 11px ; text-align: center ; background-color: rgb(255 , 255 , 255)&quot;&gt;spec.strategy.customStrategy.secrets&lt;br&gt;&lt;/span&gt;&lt;/li&gt;&lt;li&gt;&lt;span style=&quot;font-size: 11px ; text-align: center ; background-color: rgb(255 , 255 , 255)&quot;&gt;spec.strategy.customStrategy.pullSecret&lt;/span&gt;&lt;/li&gt;&lt;li&gt;spec.output.pushSecret&lt;/li&gt;&lt;li&gt;spec.source.sourceSecret&lt;/li&gt;&lt;li&gt;spec.source.secrets.secret&lt;/li&gt;&lt;li&gt;spec.strategy.customStrategy.env.valueFrom.secretKeyRef&lt;/li&gt;&lt;li&gt;spec.strategy.customStrategy.env.valueFrom.secretKeyRef&lt;/li&gt;&lt;/ol&gt;" style="text;strokeColor=default;fillColor=none;html=1;whiteSpace=wrap;verticalAlign=middle;overflow=hidden;" vertex="1" parent="1">
          <mxGeometry x="290" y="298.71" width="360" height="161.29" as="geometry" />
        </mxCell>
        <mxCell id="XeXQdiVeyh-9FNKgozW7-29" value="ConfigMap" style="rounded=0;whiteSpace=wrap;html=1;strokeColor=default;strokeWidth=1;" vertex="1" parent="1">
          <mxGeometry x="620" y="790" width="120" height="60" as="geometry" />
        </mxCell>
        <mxCell id="XeXQdiVeyh-9FNKgozW7-30" value="&lt;b&gt;Ref ConfigMap&lt;/b&gt;" style="text;html=1;strokeColor=none;fillColor=none;align=center;verticalAlign=middle;whiteSpace=wrap;rounded=0;" vertex="1" parent="1">
          <mxGeometry x="664" y="270" width="100" height="30" as="geometry" />
        </mxCell>
        <mxCell id="XeXQdiVeyh-9FNKgozW7-31" value="&lt;ol&gt;&lt;li&gt;&lt;span style=&quot;font-size: 11px ; text-align: center ; background-color: rgb(255 , 255 , 255)&quot;&gt;spec.source.configMaps&lt;/span&gt;&lt;br&gt;&lt;/li&gt;&lt;li&gt;&lt;span style=&quot;font-size: 11px ; text-align: center ; background-color: rgb(255 , 255 , 255)&quot;&gt;spec.strategy.customStrategy.env.valueFrom&lt;/span&gt;&lt;/li&gt;&lt;li&gt;spec.strategy.customStrategy.env.valueFrom.configMapKeyRef&lt;/li&gt;&lt;/ol&gt;" style="text;strokeColor=default;fillColor=none;html=1;whiteSpace=wrap;verticalAlign=middle;overflow=hidden;" vertex="1" parent="1">
          <mxGeometry x="670" y="300" width="400" height="111.29" as="geometry" />
        </mxCell>
      </root>
    </mxGraphModel>
  </diagram>
</mxfile>
